PathFileType	4	(X/Y/Z)	TVC_41_BWA_04_walk_RCNL2025.trc
DataRate	CameraRate	NumFrames	NumMarkers	Units	OrigDataRate	OrigDataStartFrame	OrigNumFrames
100	100	8	27	mm	100	139	553
Frame#	Time	R_Shoulder			L_Shoulder			C7			J_Notch			R_Elbow			L_Elbow			R_Wrist			L_Wrist			R_Asis			L_Asis			R_Psis			L_Psis			Sacral			Thoracic			Sternum			R_Thigh_Lateral			R_Knee_Lateral			R_Shank_Lateral			R_Ankle_Lateral			R_Heel			R_Toe			L_Thigh_Lateral			L_Knee_Lateral			L_Shank_Lateral			L_Ankle_Lateral			L_Heel			L_Toe		
		X1	Y1	Z1	X2	Y2	Z2	X3	Y3	Z3	X4	Y4	Z4	X5	Y5	Z5	X6	Y6	Z6	X7	Y7	Z7	X8	Y8	Z8	X9	Y9	Z9	X10	Y10	Z10	X11	Y11	Z11	X12	Y12	Z12	X13	Y13	Z13	X14	Y14	Z14	X15	Y15	Z15	X16	Y16	Z16	X17	Y17	Z17	X18	Y18	Z18	X19	Y19	Z19	X20	Y20	Z20	X21	Y21	Z21	X22	Y22	Z22	X23	Y23	Z23	X24	Y24	Z24	X25	Y25	Z25	X26	Y26	Z26	X27	Y27	Z27
139	1.38000000	-752.350281	1257.683716	333.308044	-747.935791	1249.248291	-7.071520	-797.951294	1315.487793	161.578049	-674.963440	1210.266602	172.968979	-849.630249	980.037537	378.474335	-809.458252	955.532349	-43.194702	-658.403625	934.059753	353.205719	-740.496857	759.687988	-65.502279	-701.086731	876.252686	313.536346	-700.374817	844.655640	70.855438	-866.686768	873.267456	243.081345	-871.985168	857.405273	155.155182	-869.335968	865.336365	199.118263	-842.563904	1016.197815	171.509079	-640.422974	1031.045776	169.849045	-690.234680	656.570129	406.148926	-664.731201	428.651001	327.550751	-686.117981	295.590057	392.814117	-662.801636	88.274208	324.056091	-721.568237	70.113632	274.576294	-551.669006	45.804024	324.206757	-777.620911	576.732117	-6.279590	-776.303284	389.834991	96.992615	-826.687561	255.512634	41.601799	-898.552612	62.148869	117.912094	-945.332764	46.027138	159.732361	-778.991821	37.461494	134.188522
140	1.39000000	-748.693115	1257.179688	334.641418	-745.323608	1248.824463	-5.782009	-794.923828	1314.937866	163.059662	-671.763672	1209.941162	174.012238	-845.353882	979.262634	380.064423	-806.916443	955.107056	-41.789120	-653.819000	933.732178	354.072845	-738.076263	759.242981	-64.377934	-697.403198	875.545715	314.669159	-697.460754	843.982544	72.058586	-863.223389	873.197205	244.681366	-868.899597	857.299255	156.669678	-866.061493	865.248230	200.675522	-838.879883	1015.561768	173.152573	-637.039368	1030.731445	170.773239	-687.383667	655.482422	406.918121	-664.497559	427.315369	327.820221	-686.004639	294.234955	392.936798	-663.615601	86.995369	323.609955	-722.065186	68.736053	274.231750	-552.455688	44.907288	323.622803	-775.135925	576.275818	-5.238849	-774.251587	389.253021	97.859261	-825.299255	255.370270	42.021446	-898.459290	62.159061	117.928291	-945.359863	46.099869	159.631683	-779.016235	37.453350	134.198090
141	1.40000000	-745.012146	1256.665771	336.009491	-742.561707	1248.431763	-4.447425	-791.800476	1314.404175	164.571014	-668.493713	1209.615479	175.117874	-841.107727	978.481445	381.604156	-804.223145	954.720459	-40.399235	-649.286835	933.347076	354.975449	-735.485931	758.843445	-63.256298	-693.745972	874.860291	315.822968	-694.479736	843.303589	73.291206	-859.746704	873.152527	246.245941	-865.781738	857.208191	158.150024	-862.764221	865.180359	202.197983	-835.089844	1014.928833	174.759933	-633.608215	1030.411743	171.748474	-684.640381	654.455933	407.775116	-664.245300	426.048798	328.199310	-685.837280	292.971497	393.197083	-664.353638	85.800262	323.331421	-722.373108	67.387009	274.077606	-553.159119	44.137592	323.209137	-772.589417	575.788513	-4.169715	-772.142700	388.654480	98.728561	-823.878540	255.235611	42.437485	-898.353943	62.178234	117.925316	-945.381714	46.191742	159.507767	-779.040955	37.439690	134.197281
142	1.41000000	-741.311523	1256.145142	337.410767	-739.652771	1248.072144	-3.069987	-788.583923	1313.889038	166.109604	-665.156616	1209.291382	176.285324	-836.899109	977.699158	383.092712	-801.381531	954.373901	-39.026222	-644.816833	932.904205	355.912659	-732.727020	758.491577	-62.135962	-690.119812	874.198975	316.999115	-691.433472	842.622253	74.552422	-856.260437	873.134277	247.774124	-862.634460	857.133789	159.595200	-859.447449	865.134033	203.684662	-831.204834	1014.303101	176.328568	-630.132446	1030.088501	172.775070	-682.011169	653.493103	408.719543	-663.969666	424.853973	328.683350	-685.612427	291.800964	393.589111	-665.012634	84.690262	323.213440	-722.504822	66.072418	274.106659	-553.777588	43.489784	322.952637	-769.995972	575.274902	-3.073255	-769.980896	388.042297	99.597679	-822.428894	255.111084	42.848663	-898.237244	62.209843	117.898445	-945.397705	46.305984	159.358047	-779.067261	37.420643	134.184158
143	1.42000000	-737.595032	1255.620972	338.843811	-736.600220	1247.747070	-1.651823	-785.277222	1313.395264	167.673111	-661.755371	1208.970337	177.513901	-832.734924	976.920837	384.529968	-798.395508	954.068604	-37.670952	-640.418304	932.403870	356.884033	-729.801453	758.189545	-61.015419	-686.529358	873.564087	318.198792	-688.324280	841.942200	75.841248	-852.768677	873.143188	249.265244	-859.460693	857.077576	161.004379	-856.114685	865.110382	205.134811	-827.237549	1013.689026	177.856354	-626.615356	1029.763428	173.853241	-679.501892	652.595276	409.749878	-663.666809	423.732727	329.266724	-685.328369	290.723541	394.105591	-665.591370	83.665756	323.247375	-722.476318	64.797920	274.309448	-554.311646	42.957420	322.839050	-767.370178	574.740540	-1.951132	-767.770630	387.419708	100.463722	-820.953979	254.999222	43.253712	-898.110107	62.257874	117.842621	-945.407410	46.446465	159.179153	-779.096375	37.396587	134.156738
144	1.43000000	-733.866516	1255.096313	340.307281	-733.408325	1247.458252	-0.194945	-781.884033	1312.925049	169.259415	-658.293213	1208.654053	178.802780	-828.621582	976.151855	385.916260	-795.269897	953.805847	-36.333988	-636.100098	931.847076	357.889572	-726.711792	757.939392	-59.893108	-682.978638	872.957520	319.422791	-685.154541	841.267151	77.156586	-849.275269	873.179810	250.718796	-856.263306	857.041321	162.376999	-852.769287	865.110565	206.547897	-823.202087	1013.091431	179.341660	-623.060242	1029.438354	174.983017	-677.117615	651.763123	410.863617	-663.333557	422.686188	329.943024	-684.985046	289.738403	394.738007	-666.090210	82.726242	323.423218	-722.306152	63.568890	274.674500	-554.763184	42.532955	322.853394	-764.726318	574.191833	-0.805598	-765.516663	386.790131	101.323792	-819.457397	254.902664	43.651348	-897.973267	62.326763	117.752655	-945.410156	46.617683	158.966934	-779.129150	37.368160	134.112930
145	1.44000000	-730.129761	1254.574097	341.800049	-730.082031	1247.207031	1.298761	-778.408020	1312.480835	170.866623	-654.773682	1208.343872	180.151031	-824.565247	975.397339	387.252563	-792.010254	953.586670	-35.015568	-631.870605	931.235565	358.929794	-723.461456	757.743134	-58.767422	-679.471375	872.380920	320.671783	-681.927185	840.600952	78.497215	-845.784180	873.244690	252.134491	-853.044983	857.026672	163.712738	-849.414581	865.135681	207.923615	-819.113342	1012.515320	180.783371	-619.470459	1029.114746	176.164291	-674.862366	650.996582	412.057190	-662.967712	421.714600	330.705017	-684.584106	288.843689	395.476624	-666.511047	81.870377	323.729706	-722.014648	62.390305	275.188568	-555.135925	42.207958	322.980255	-762.077942	573.636047	0.360540	-763.223511	386.157227	102.174973	-817.942749	254.824142	44.040268	-897.827393	62.421368	117.623444	-945.405579	46.824753	158.716690	-779.166077	37.336292	134.050629
146	1.45000000	-726.388245	1254.057129	343.320953	-726.627014	1246.994385	2.827546	-774.853577	1312.064575	172.493073	-651.200256	1208.041138	181.557602	-820.571411	974.662476	388.540314	-788.622864	953.412109	-33.715588	-627.737366	930.572021	360.005707	-720.054413	757.602661	-57.636717	-676.010742	871.835510	321.946075	-678.645447	839.947388	79.861809	-842.299255	873.338196	253.512192	-849.808472	857.035400	165.011444	-846.053864	865.186798	209.261818	-814.986938	1011.965759	182.180893	-615.849609	1028.794067	177.396774	-672.739319	650.294678	413.325989	-662.567688	420.817566	331.544830	-684.128418	288.036804	396.310638	-666.856812	81.096054	324.154572	-721.623291	61.266747	275.836792	-555.434509	41.973320	323.203888	-759.437256	573.080750	1.543971	-760.895874	385.524780	103.014366	-816.413330	254.766434	44.419167	-897.672913	62.546833	117.450249	-945.393066	47.073315	158.423447	-779.206970	37.302177	133.967789
